<?xml version="1.0" encoding="UTF-8"?>
<svg id="Layer_2" data-name="Layer 2" xmlns="http://www.w3.org/2000/svg" viewBox="0 0 434.94 126.43">
  <defs>
    <style>
      .cls-1, .cls-2 {
        fill: #fb9819;
      }

      .cls-3 {
        fill: #4640d3;
        opacity: .3;
      }

      .cls-4 {
        fill: #ec7418;
      }

      .cls-5 {
        fill: #383837;
      }

      .cls-6 {
        fill: none;
      }

      .cls-2 {
        fill-rule: evenodd;
      }
    </style>
  </defs>
  <g id="Layer_1-2" data-name="Layer 1">
    <g id="logo-horizontal-light">
      <g id="paraiso">
        <path id="o" class="cls-5" d="m373.29,103.95c-3.31,0-6.05,1.19-8.22,3.58-1.97,2.16-2.95,4.72-2.95,7.67s1.04,5.58,3.12,7.8c2.08,2.22,4.76,3.34,8.05,3.34s5.94-1.11,8.02-3.34c2.08-2.22,3.12-4.82,3.12-7.8s-.98-5.53-2.96-7.69c-2.16-2.38-4.9-3.56-8.19-3.56Zm7.21,15.62c-.75,1.33-1.76,2.35-3.04,3.08-1.27.72-2.67,1.09-4.19,1.09s-2.92-.36-4.19-1.09c-1.27-.72-2.29-1.75-3.04-3.08-.74-1.33-1.12-2.77-1.12-4.3,0-2.39.82-4.42,2.46-6.1,1.64-1.68,3.6-2.52,5.88-2.52s4.23.84,5.87,2.52c1.65,1.68,2.47,3.72,2.47,6.1,0,1.53-.38,2.97-1.12,4.3Z"/>
        <path id="s" class="cls-5" d="m352.25,106.48c1.4,0,2.84.71,4.31,2.13l1.77-1.82c-2-1.9-3.98-2.84-5.95-2.84-1.7,0-3.1.54-4.21,1.6-1.11,1.07-1.66,2.41-1.66,4.03,0,1.24.35,2.34,1.05,3.3.69.96,2,1.94,3.93,2.93,1.8.91,2.95,1.67,3.46,2.27.51.62.76,1.31.76,2.1,0,.95-.39,1.78-1.16,2.49-.78.7-1.72,1.06-2.81,1.06-1.57,0-3.07-.79-4.47-2.37l-1.73,1.96c.74.94,1.66,1.68,2.78,2.22,1.13.54,2.3.8,3.53.8,1.85,0,3.39-.61,4.62-1.82,1.23-1.22,1.85-2.7,1.85-4.46,0-1.24-.36-2.36-1.08-3.35-.74-.98-2.12-2-4.16-3.06-1.68-.86-2.78-1.61-3.3-2.26-.52-.62-.78-1.29-.78-1.98,0-.78.32-1.47.96-2.06.64-.59,1.4-.88,2.29-.88Z"/>
        <g id="_í" data-name="í">
          <polygon class="cls-5" points="346.06 94.46 341.85 94.46 337.58 100.49 340.28 100.49 346.06 94.46"/>
          <rect class="cls-5" x="339.11" y="104.47" width="2.73" height="21.35"/>
        </g>
        <path id="a" class="cls-5" d="m330.57,108.4c-1.07-1.49-2.32-2.61-3.73-3.34-1.42-.74-3-1.11-4.75-1.11-3.04,0-5.63,1.09-7.78,3.27-2.16,2.18-3.24,4.8-3.24,7.87s1.07,5.79,3.2,7.98c2.14,2.18,4.72,3.28,7.73,3.28,1.7,0,3.26-.35,4.69-1.05,1.43-.7,2.72-1.75,3.87-3.15v3.67h2.73v-21.35h-2.73v3.93Zm-.92,11.21c-.72,1.29-1.76,2.31-3.1,3.07-1.34.76-2.77,1.13-4.26,1.13s-2.88-.38-4.18-1.15c-1.3-.76-2.33-1.82-3.1-3.19-.77-1.37-1.15-2.8-1.15-4.3s.38-2.95,1.15-4.3c.76-1.35,1.79-2.41,3.08-3.15,1.29-.75,2.7-1.13,4.23-1.13,2.37,0,4.37.82,5.99,2.48,1.63,1.66,2.44,3.71,2.44,6.17,0,1.61-.36,3.07-1.09,4.36Z"/>
        <path id="r" class="cls-5" d="m304.37,104.84c-.93.6-1.82,1.51-2.65,2.75v-3.12h-2.81v21.35h2.81v-7.22c0-3.7.17-6.16.51-7.37.45-1.58,1.1-2.75,1.95-3.5.85-.75,1.74-1.13,2.65-1.13.4,0,.88.13,1.45.38l1.43-2.31c-.86-.48-1.68-.72-2.44-.72-1.01,0-1.98.3-2.91.9Z"/>
        <path id="a-2" data-name="a" class="cls-5" d="m291.01,108.4c-1.07-1.49-2.32-2.61-3.73-3.34-1.42-.74-3-1.11-4.75-1.11-3.04,0-5.63,1.09-7.78,3.27-2.16,2.18-3.24,4.8-3.24,7.87s1.07,5.79,3.2,7.98c2.14,2.18,4.72,3.28,7.73,3.28,1.7,0,3.26-.35,4.69-1.05,1.43-.7,2.72-1.75,3.87-3.15v3.67h2.73v-21.35h-2.73v3.93Zm-.92,11.21c-.72,1.29-1.76,2.31-3.1,3.07-1.34.76-2.77,1.13-4.26,1.13s-2.88-.38-4.18-1.15c-1.3-.76-2.33-1.82-3.1-3.19-.77-1.37-1.15-2.8-1.15-4.3s.38-2.95,1.15-4.3c.76-1.35,1.79-2.41,3.08-3.15,1.29-.75,2.7-1.13,4.23-1.13,2.37,0,4.37.82,5.99,2.48,1.63,1.66,2.44,3.71,2.44,6.17,0,1.61-.36,3.07-1.09,4.36Z"/>
        <path id="p" class="cls-5" d="m261.56,97.38c-1.15-.29-3.38-.43-6.68-.43h-5.76v28.87h2.89v-13.43h2.06c3.59,0,6.03-.15,7.34-.47,1.79-.44,3.2-1.27,4.21-2.52,1.03-1.25,1.53-2.83,1.53-4.76s-.52-3.5-1.57-4.76c-1.05-1.27-2.39-2.1-4.04-2.51Zm1.86,9.97c-.52.8-1.25,1.38-2.16,1.74-.92.36-2.37.54-4.34.54l-4.89-.06v-9.81h5.11c1.96,0,3.36.17,4.21.51.86.34,1.55.91,2.08,1.72.52.8.78,1.7.78,2.66s-.26,1.9-.78,2.7Z"/>
      </g>
      <g id="do">
        <path id="o-2" data-name="o" class="cls-5" d="m229.54,107.51c-2.16-2.38-4.9-3.56-8.19-3.56s-6.05,1.19-8.22,3.58c-1.97,2.16-2.95,4.72-2.95,7.67s1.04,5.58,3.12,7.8c2.08,2.22,4.76,3.34,8.05,3.34s5.94-1.11,8.02-3.34c2.08-2.22,3.12-4.82,3.12-7.8s-.99-5.53-2.96-7.69Zm-.98,12.05c-.75,1.33-1.76,2.35-3.04,3.08-1.27.72-2.67,1.09-4.19,1.09s-2.92-.36-4.19-1.09c-1.27-.72-2.29-1.75-3.04-3.08-.74-1.33-1.12-2.77-1.12-4.3,0-2.39.82-4.42,2.46-6.1,1.64-1.68,3.6-2.52,5.88-2.52s4.23.84,5.87,2.52c1.65,1.68,2.47,3.72,2.47,6.1,0,1.53-.38,2.97-1.12,4.3Z"/>
        <path id="d" class="cls-5" d="m202.26,108.42c-5.67-8.79-19.97-3.43-19.5,6.66-.48,10.2,13.4,15.4,19.5,7.06v3.67h2.73v-29.59h-2.73v12.2Zm-.92,11.18c-5.48,9.66-20.31.69-14.65-8.73,5.52-9.86,20.24-.8,14.65,8.73Z"/>
      </g>
      <g id="receitas">
        <path id="s-2" data-name="s" class="cls-5" d="m425.15,62.07c-3.13-1.62-5.2-3.02-6.17-4.22-.98-1.16-1.46-2.4-1.46-3.69,0-1.47.6-2.76,1.79-3.84,1.19-1.1,2.62-1.65,4.28-1.65,2.62,0,5.31,1.33,8.05,3.98l3.31-3.41c-3.73-3.54-7.44-5.31-11.12-5.31-3.17,0-5.78,1-7.86,2.99-2.07,2-3.11,4.51-3.11,7.53,0,2.32.65,4.37,1.95,6.17,1.29,1.8,3.74,3.63,7.35,5.48,3.36,1.7,5.51,3.12,6.47,4.24.95,1.15,1.43,2.45,1.43,3.92,0,1.78-.73,3.33-2.17,4.65-1.45,1.32-3.21,1.98-5.26,1.98-2.94,0-5.74-1.48-8.35-4.43l-3.23,3.67c1.38,1.77,3.11,3.14,5.2,4.14,2.1,1,4.3,1.5,6.6,1.5,3.46,0,6.34-1.14,8.64-3.41,2.3-2.28,3.46-5.05,3.46-8.33,0-2.32-.68-4.41-2.02-6.26-1.38-1.83-3.97-3.74-7.78-5.71Z"/>
        <path id="a-3" data-name="a" class="cls-5" d="m398.11,52.24c-2-2.79-4.33-4.87-6.97-6.25-2.65-1.38-5.61-2.07-8.88-2.07-5.67,0-10.52,2.04-14.54,6.11-4.03,4.07-6.05,8.98-6.05,14.7s1.99,10.82,5.99,14.91c3.99,4.08,8.82,6.12,14.45,6.12,3.17,0,6.1-.65,8.77-1.95,2.68-1.3,5.08-3.27,7.24-5.89v6.86h5.11v-39.89h-5.11v7.34Zm-1.73,20.95c-1.35,2.42-3.28,4.32-5.8,5.73-2.5,1.42-5.17,2.12-7.96,2.12s-5.38-.71-7.81-2.14c-2.43-1.42-4.36-3.41-5.8-5.96-1.44-2.55-2.15-5.23-2.15-8.03s.71-5.51,2.14-8.04c1.43-2.53,3.34-4.5,5.76-5.89,2.4-1.4,5.05-2.1,7.9-2.1,4.43,0,8.16,1.54,11.19,4.63,3.04,3.09,4.56,6.94,4.56,11.53,0,3.02-.68,5.73-2.03,8.14Z"/>
        <polygon id="t" class="cls-5" points="342.45 84.8 347.56 84.8 347.56 49.34 355.68 49.34 355.68 44.91 347.56 44.91 347.56 30.03 342.45 30.03 342.45 44.91 335.47 44.91 335.47 49.34 342.45 49.34 342.45 84.8"/>
        <g id="i">
          <path class="cls-5" d="m324.77,37.02c1.16,0,2.15-.41,2.98-1.25.83-.83,1.24-1.83,1.24-2.98s-.41-2.18-1.24-3.01c-.83-.84-1.82-1.25-2.98-1.25s-2.13.41-2.96,1.25c-.83.83-1.24,1.84-1.24,3.01s.41,2.15,1.24,2.98c.83.84,1.8,1.25,2.96,1.25Z"/>
          <rect class="cls-5" x="322.23" y="44.91" width="5.11" height="39.89"/>
        </g>
        <path id="e" class="cls-5" d="m293.04,85.78c2.94,0,5.57-.44,7.91-1.33,2.33-.89,4.42-2.19,6.29-3.88,1.87-1.7,3.51-3.94,4.93-6.71l-4.33-2.28c-1.57,2.59-3.03,4.46-4.38,5.62-1.35,1.16-2.99,2.09-4.92,2.79-1.93.7-3.92,1.05-5.96,1.05-4.22,0-7.78-1.48-10.66-4.43-2.87-2.94-4.36-6.72-4.46-11.34h36.06c-.05-5.45-1.53-9.98-4.42-13.61-4.07-5.15-9.53-7.73-16.35-7.73s-11.92,2.52-15.86,7.54c-3.12,3.94-4.68,8.45-4.68,13.5,0,5.36,1.84,10.17,5.52,14.42,3.68,4.26,8.78,6.39,15.31,6.39Zm-10.37-33.2c2.83-2.52,6.21-3.77,10.16-3.77,2.38,0,4.66.5,6.82,1.5s3.91,2.32,5.23,3.96c1.31,1.64,2.32,3.82,3.01,6.56h-29.91c1.06-3.67,2.62-6.41,4.7-8.25Z"/>
        <path id="c" class="cls-5" d="m264.32,76.74l-4.07-2.68c-3.73,4.66-8.54,6.99-14.42,6.99-3.22,0-6.12-.7-8.7-2.12-2.59-1.41-4.63-3.41-6.11-5.96-1.49-2.55-2.23-5.28-2.23-8.19,0-4.46,1.62-8.24,4.83-11.36,3.23-3.12,7.29-4.68,12.17-4.68,6.11,0,10.93,2.33,14.46,6.99l4.07-2.53c-1.2-1.99-2.65-3.63-4.38-4.92-1.72-1.29-3.81-2.34-6.26-3.14-2.47-.8-5.02-1.2-7.68-1.2-4.22,0-8.03.93-11.44,2.78-3.41,1.85-6.09,4.43-8.03,7.74-1.95,3.31-2.93,6.89-2.93,10.73,0,5.73,2.08,10.59,6.25,14.6,4.17,3.99,9.42,6,15.75,6,4.12,0,7.79-.79,11.02-2.37,3.22-1.59,5.78-3.81,7.7-6.67Z"/>
        <path id="e-2" data-name="e" class="cls-5" d="m210.41,71.58c-1.57,2.59-3.03,4.46-4.38,5.62-1.35,1.16-2.99,2.09-4.92,2.79-1.93.7-3.92,1.05-5.96,1.05-4.22,0-7.78-1.48-10.66-4.43-2.87-2.94-4.36-6.72-4.46-11.34h36.06c-.05-5.45-1.53-9.98-4.42-13.61-4.07-5.15-9.53-7.73-16.35-7.73s-11.92,2.52-15.86,7.54c-3.12,3.94-4.68,8.45-4.68,13.5,0,5.36,1.84,10.17,5.52,14.42,3.68,4.26,8.78,6.39,15.31,6.39,2.94,0,5.57-.44,7.91-1.33,2.33-.89,4.42-2.19,6.29-3.88,1.87-1.7,3.51-3.94,4.93-6.71l-4.33-2.28Zm-25.17-19c2.83-2.52,6.21-3.77,10.16-3.77,2.38,0,4.66.5,6.82,1.5,2.17,1,3.91,2.32,5.23,3.96,1.31,1.64,2.32,3.82,3.01,6.56h-29.91c1.06-3.67,2.62-6.41,4.7-8.25Z"/>
        <path id="r-2" data-name="r" class="cls-5" d="m158.05,57.97c2.58-1.14,4.56-2.82,5.94-5.05,1.39-2.22,2.08-4.8,2.08-7.73,0-3.52-1-6.49-3.02-8.89-2-2.42-4.61-3.98-7.83-4.71-2.13-.49-6.2-.74-12.2-.74h-10.77v53.94h5.41v-25.09h3.11l19.42,25.09h6.62l-19.42-25.09c4.53-.03,8.09-.6,10.66-1.74Zm-20.39-3.52v-18.33h9.54c3.71,0,6.36.31,7.95.95,1.6.64,2.89,1.69,3.87,3.17.99,1.48,1.48,3.13,1.48,4.93s-.49,3.54-1.45,5.05c-.98,1.5-2.33,2.59-4.06,3.28-1.73.69-4.4,1.03-8.01,1.03l-9.32-.08Z"/>
      </g>
      <g id="symbol">
        <path id="hat" class="cls-2" d="m103.36,35.87c-12.33-3.88-24.23.22-24.23.22,3.22-4.16,8.28-5.3,12.95-5.26.54-1.91,2.53-12.16-12.56-22.41,0,0,19.08,7.99,16.11,22.52l-.03.12c4.8.48,7.88,1.82,7.88,1.82,5.99-19.33-29.13-38.82-45.46-27.59-8.48,6.69-10.24,19.83-10.24,19.83,0,0-1.42-2.72.1-9.64,1.52-6.93,5.9-12.01,5.9-12.01-1.97-2.49-16.59-8.46-25.67,5.13-5.66,8.47-2.31,15.19,1.02,19.05,2.27,2.64,5.4,4.46,8.84,4.95.22.03.43.06.65.08,0,0-.81,1.7-7.42,4.6,0,0,0,.05-.02.14-.6,3.68.56,7.42,3.1,10.16.82.89,1.84,1.91,3.08,3,.96.85,2.35,1.85,4.02,2.93-.18-.62-.25-1.35-.15-2.19.7-5.68,4.53-17.73,4.53-17.73-3.43,16.54-.77,20.49-.77,20.49,0,0-.05-1.21,1.16-5.35,1.21-4.15,3.86-9.26,3.86-9.26,0,0-2.6,7.19-2.75,12.01-.11,3.75.07,5.17.15,5.61,8.31,4.63,19.05,9.63,24.89,11.63,1.34.43,7.36,2.11,12.15-1.07h0s.05-.03.08-.05c-3.74-5.77-1.94-12.49-1.94-12.49.33,13.49,21.6,22.72,29.87,7.79,6.9-12.47,3.22-23.16-9.11-27.04Z"/>
        <g id="ball">
          <path class="cls-6" d="m48.06,114.31c.18.06.35.13.52.2-.17-.07-.34-.14-.52-.2Z"/>
          <path class="cls-6" d="m49.03,114.68c.19.08.37.16.56.24-.18-.08-.37-.17-.56-.24Z"/>
          <path class="cls-6" d="m47.03,113.97c.17.05.34.11.51.17-.17-.06-.33-.11-.51-.17Z"/>
          <path class="cls-6" d="m49.96,115.09c.2.09.39.19.58.29-.19-.1-.38-.2-.58-.29Z"/>
          <path class="cls-6" d="m42.63,113.06c.13.02.26.04.4.05-.13-.02-.26-.04-.4-.05Z"/>
          <path class="cls-6" d="m41.46,112.95c.12,0,.24.02.37.03-.12,0-.24-.02-.37-.03Z"/>
          <path class="cls-6" d="m45.98,113.67c.16.04.32.09.48.13-.16-.04-.32-.09-.48-.13Z"/>
          <path class="cls-6" d="m50.84,115.53c.21.11.41.22.6.34-.2-.11-.4-.23-.6-.34Z"/>
          <path class="cls-6" d="m44.89,113.42c.15.03.31.07.46.11-.15-.04-.3-.07-.46-.11Z"/>
          <path class="cls-6" d="m43.77,113.21c.15.02.3.06.45.08-.15-.03-.3-.06-.45-.08Z"/>
          <path class="cls-6" d="m52.43,116.48c.22.15.42.3.62.45-.2-.15-.4-.3-.62-.45Z"/>
          <path class="cls-6" d="m51.66,115.99c.21.13.41.26.61.39-.2-.13-.4-.26-.61-.39Z"/>
          <path class="cls-1" d="m41.83,112.99c.27.02.53.04.8.07-.26-.03-.53-.05-.8-.07Z"/>
          <path class="cls-3" d="m41.83,112.99c.27.02.53.04.8.07-.26-.03-.53-.05-.8-.07Z"/>
          <path class="cls-1" d="m44.21,113.3c.22.04.45.08.67.12-.22-.05-.45-.08-.67-.12Z"/>
          <path class="cls-3" d="m44.21,113.3c.22.04.45.08.67.12-.22-.05-.45-.08-.67-.12Z"/>
          <path class="cls-1" d="m40.29,112.91c.39,0,.79.02,1.18.05-.39-.03-.78-.04-1.18-.05Z"/>
          <path class="cls-3" d="m40.29,112.91c.39,0,.79.02,1.18.05-.39-.03-.78-.04-1.18-.05Z"/>
          <path class="cls-1" d="m43.02,113.11c.25.03.5.06.75.1-.25-.04-.5-.07-.75-.1Z"/>
          <path class="cls-3" d="m43.02,113.11c.25.03.5.06.75.1-.25-.04-.5-.07-.75-.1Z"/>
          <path class="cls-1" d="m52.28,116.38s.1.06.15.1c-.05-.03-.1-.06-.15-.1Z"/>
          <path class="cls-3" d="m52.28,116.38s.1.06.15.1c-.05-.03-.1-.06-.15-.1Z"/>
          <path class="cls-1" d="m50.55,115.38c.1.05.2.1.29.15-.1-.05-.2-.1-.29-.15Z"/>
          <path class="cls-3" d="m50.55,115.38c.1.05.2.1.29.15-.1-.05-.2-.1-.29-.15Z"/>
          <path class="cls-1" d="m49.59,114.93c.12.05.25.11.37.16-.12-.06-.25-.11-.37-.16Z"/>
          <path class="cls-3" d="m49.59,114.93c.12.05.25.11.37.16-.12-.06-.25-.11-.37-.16Z"/>
          <path class="cls-1" d="m48.58,114.51c.15.06.31.11.45.17-.15-.06-.3-.12-.45-.17Z"/>
          <path class="cls-3" d="m48.58,114.51c.15.06.31.11.45.17-.15-.06-.3-.12-.45-.17Z"/>
          <path class="cls-1" d="m51.44,115.87c.07.04.15.08.22.12-.07-.04-.15-.08-.22-.12Z"/>
          <path class="cls-3" d="m51.44,115.87c.07.04.15.08.22.12-.07-.04-.15-.08-.22-.12Z"/>
          <path class="cls-1" d="m46.46,113.81c.19.05.39.1.58.16-.19-.06-.38-.11-.58-.16Z"/>
          <path class="cls-3" d="m46.46,113.81c.19.05.39.1.58.16-.19-.06-.38-.11-.58-.16Z"/>
          <path class="cls-1" d="m47.54,114.14c.17.06.35.11.51.17-.17-.06-.34-.11-.51-.17Z"/>
          <path class="cls-3" d="m47.54,114.14c.17.06.35.11.51.17-.17-.06-.34-.11-.51-.17Z"/>
          <path class="cls-1" d="m45.35,113.53c.21.05.43.09.63.15-.21-.05-.42-.1-.63-.15Z"/>
          <path class="cls-3" d="m45.35,113.53c.21.05.43.09.63.15-.21-.05-.42-.1-.63-.15Z"/>
          <path class="cls-1" d="m92.03,74.39c-1.61-.61-3.17-1.39-4.62-2.32l-.19.11c-.23.13-.46.27-.69.41-6.1,3.39-13.08,2-16.66.89-6.14-2.12-13.98-6.02-17.16-7.61-3.66-1.83-7.29-3.76-10.82-5.83-2.68-1.58-5.7-3.42-8.03-5.48-2.18-1.93-5.04-4.19-6.59-6.92-.01-.02-.02-.03-.04-.05-2.6-4-.2-9.35-.2-9.35-12.75,5.82-22.38,17.27-25.74,31.17.31,20.93,12.18,43.49,38.97,43.49h.02c.39,0,.79.02,1.18.05.12,0,.24.02.37.03.27.02.53.04.8.07.13.02.26.04.4.05.25.03.5.06.75.1.15.02.3.06.45.08.22.04.45.08.67.12.15.03.31.07.46.11.21.05.43.09.63.15.16.04.32.09.48.13.19.05.39.1.58.16.17.05.34.11.51.17.17.06.35.11.51.17.18.06.35.13.52.2.15.06.31.11.45.17.19.08.37.16.56.24.12.05.25.11.37.16.2.09.39.19.58.29.1.05.2.1.29.15.21.11.41.22.6.34.07.04.15.08.22.12.21.13.41.26.61.39.05.03.1.06.15.1.22.15.42.3.62.45.03.02.06.04.08.06.21.16.41.33.61.5,0,0,.02.01.03.02,3.05,3.32.88,6.94-5.18,8.87,24.54-1.1,43.82-21.27,43.82-46.09,0-2-.13-3.97-.37-5.9Z"/>
          <path class="cls-4" d="m40.29,112.91h-.02c-26.8,0-38.66-22.56-38.97-43.49-.3,1.25-.55,2.51-.75,3.79-.08.5-.14,1-.2,1.5-.01.1-.03.2-.04.3-.05.42-.08.84-.12,1.26-.03.32-.05.64-.07.96-.02.33-.04.66-.06.99-.03.61-.04,1.23-.05,1.85,0,.07,0,.13,0,.2,0,.15,0,.3.01.45,0,.68.02,1.36.06,2.04.02.44.06.88.1,1.32.03.37.06.74.1,1.11.05.51.12,1.02.19,1.53.04.28.08.56.12.84.09.56.19,1.11.3,1.66.04.21.08.42.13.63.13.6.26,1.2.41,1.79.03.13.07.26.1.39.17.66.36,1.32.56,1.97h0c4.05,13.01,13.68,23.55,26.1,28.81.03.01.07.03.1.04.42.18.85.34,1.27.5,5.21,1.94,10.96,3.02,17.13,3.09.64,0,1.27-.02,1.9-.05,15.1-2.95,4.28-13.29-8.3-13.47Z"/>
        </g>
      </g>
    </g>
  </g>
</svg>